<?xml version="1.0" encoding="UTF-8" standalone="no"?>
<svg width="16px" height="16px" viewBox="0 0 16 16" version="1.1" xmlns="http://www.w3.org/2000/svg" xmlns:xlink="http://www.w3.org/1999/xlink">
    <!-- Generator: Sketch 3.8.1 (29687) - http://www.bohemiancoding.com/sketch -->
    <title>269-info</title>
    <desc>Created with Sketch.</desc>
    <defs></defs>
    <g id="Page-1" stroke="none" stroke-width="1" fill="none" fill-rule="evenodd">
        <g id="269-info" fill="#979797">
            <path d="M7,4.75 C7,4.338 7.338,4 7.75,4 L8.25,4 C8.662,4 9,4.338 9,4.75 L9,5.25 C9,5.662 8.662,6 8.25,6 L7.75,6 C7.338,6 7,5.662 7,5.25 L7,4.75 L7,4.75 Z" id="Shape"></path>
            <polygon id="Shape" points="10 12 6 12 6 11 7 11 7 8 6 8 6 7 9 7 9 11 10 11"></polygon>
            <path d="M8,0 C3.582,0 0,3.582 0,8 C0,12.418 3.582,16 8,16 C12.418,16 16,12.418 16,8 C16,3.582 12.418,0 8,0 L8,0 Z M8,14.5 C4.41,14.5 1.5,11.59 1.5,8 C1.5,4.41 4.41,1.5 8,1.5 C11.59,1.5 14.5,4.41 14.5,8 C14.5,11.59 11.59,14.5 8,14.5 L8,14.5 Z" id="Shape"></path>
        </g>
    </g>
</svg>